<?xml version="1.0" encoding="UTF-8"?>
<svg xmlns="http://www.w3.org/2000/svg" xmlns:xlink="http://www.w3.org/1999/xlink" width="32px" height="32px" viewBox="0 0 32 32" version="1.1">
<g id="surface1">
<path style=" stroke:none;fill-rule:nonzero;fill:rgb(0%,40.392157%,45.882353%);fill-opacity:1;" d="M 32 16 C 32 7.164062 24.835938 0 16 0 C 7.164062 0 0 7.164062 0 16 C 0 24.835938 7.164062 32 16 32 C 24.835938 32 32 24.835938 32 16 Z M 32 16 "/>
<path style=" stroke:none;fill-rule:nonzero;fill:rgb(1.960784%,33.725491%,38.039216%);fill-opacity:1;" d="M 18.339844 31.828125 L 7.394531 20.65625 L 25.203125 9.789062 L 31.988281 16.570312 C 31.707031 24.351562 25.878906 30.714844 18.339844 31.820312 Z M 18.339844 31.828125 "/>
<path style=" stroke:none;fill-rule:nonzero;fill:rgb(100%,85.490197%,27.058825%);fill-opacity:1;" d="M 7.734375 8.871094 L 24.003906 8.871094 C 24.574219 8.871094 25.039062 9.335938 25.039062 9.90625 L 25.039062 19.5 C 25.039062 20.066406 24.574219 20.53125 24.003906 20.53125 L 21.546875 20.53125 L 19.726562 22.808594 L 17.910156 20.53125 L 7.734375 20.53125 C 7.164062 20.53125 6.699219 20.066406 6.699219 19.5 L 6.699219 9.90625 C 6.699219 9.335938 7.164062 8.871094 7.734375 8.871094 Z M 7.734375 8.871094 "/>
<path style=" stroke:none;fill-rule:nonzero;fill:rgb(0%,80.000001%,58.823532%);fill-opacity:1;" d="M 9.980469 15.332031 L 10.105469 15.332031 L 10.847656 14.929688 L 10.96875 14.460938 C 10.792969 14.277344 10.605469 13.980469 10.441406 13.605469 C 10.425781 13.605469 10.414062 13.605469 10.398438 13.605469 C 10.203125 13.605469 10.007812 13.390625 9.96875 13.125 C 9.933594 12.917969 10.003906 12.746094 10.128906 12.675781 C 9.960938 11.828125 9.851562 10.53125 11.308594 10.210938 C 12.183594 10.015625 12.496094 10.691406 12.53125 10.765625 C 13.058594 10.46875 13.398438 10.910156 13.480469 11.148438 C 13.640625 11.570312 13.585938 12.363281 13.507812 12.71875 C 13.597656 12.800781 13.640625 12.953125 13.613281 13.125 C 13.570312 13.382812 13.382812 13.597656 13.1875 13.605469 C 13.035156 13.945312 12.820312 14.238281 12.613281 14.453125 L 12.730469 14.925781 L 12.738281 14.925781 L 13.460938 15.328125 L 13.597656 15.328125 C 14.550781 15.328125 15.328125 16.078125 15.328125 16.984375 L 15.328125 18.332031 L 8.246094 18.332031 L 8.246094 16.984375 C 8.246094 16.070312 9.023438 15.328125 9.976562 15.328125 Z M 9.980469 15.332031 "/>
<path style=" stroke:none;fill-rule:nonzero;fill:rgb(100%,100%,100%);fill-opacity:1;" d="M 16.132812 11.265625 L 23.121094 11.265625 L 23.121094 11.917969 L 16.132812 11.917969 Z M 16.132812 15.175781 L 19.628906 15.175781 L 19.628906 15.828125 L 16.132812 15.828125 Z M 16.132812 13.867188 L 23.121094 13.867188 L 23.121094 14.523438 L 16.132812 14.523438 Z M 16.132812 12.5625 L 23.121094 12.5625 L 23.121094 13.214844 L 16.132812 13.214844 Z M 16.132812 12.5625 "/>
</g>
</svg>
